<svg width="45" height="53" viewBox="0 0 45 53" fill="none" xmlns="http://www.w3.org/2000/svg">
<path d="M38.3526 31.0553V4.28213C38.3526 3.46703 37.8459 2.73783 37.0819 2.45357L33.9798 1.29925C33.4532 1.10333 32.8678 1.14388 32.3733 1.41052L1.48597 18.0658C0.854579 18.4063 0.460938 19.0658 0.460938 19.7831V47.4914C0.460938 48.2966 0.955518 49.019 1.70612 49.3103L4.62674 50.4437C5.17214 50.6554 5.78375 50.6111 6.29299 50.3232L37.3619 32.7536C37.9741 32.4075 38.3526 31.7586 38.3526 31.0553Z" fill="#333333" stroke="#161616" stroke-width="0.650348"/>
<path d="M35.468 2.56296L4.53198 19.4244C3.90488 19.7662 3.51465 20.4233 3.51465 21.1375L3.5147 48.7133C3.5147 50.1981 5.10748 51.1388 6.4078 50.4218L37.3438 33.3642C37.9662 33.021 38.3527 32.3664 38.3527 31.6556V4.27606C38.3527 2.79538 36.7681 1.85434 35.468 2.56296Z" fill="white" stroke="#161616" stroke-width="0.650348"/>
<path d="M20.1939 17.3634L9.59575 23.1804C9.17957 23.4089 8.9209 23.8459 8.9209 24.3207V43.3524C8.9209 43.8461 9.44939 44.1597 9.88276 43.9232L20.4795 38.1408C20.8973 37.9128 21.1572 37.4749 21.1572 36.999V17.9335C21.1572 17.4391 20.6273 17.1255 20.1939 17.3634Z" fill="#E2E2E2" stroke="#161616" stroke-width="0.650348"/>
<path d="M33.2316 10.6199L24.8948 15.2158C24.791 15.273 24.7266 15.3821 24.7266 15.5006V18.4565C24.7266 18.7038 24.9917 18.8606 25.2085 18.7414L33.5453 14.1559C33.6492 14.0988 33.7137 13.9896 33.7137 13.871V10.9047C33.7137 10.6572 33.4483 10.5005 33.2316 10.6199Z" fill="#333333" stroke="#161616" stroke-width="0.650348"/>
<path d="M33.2316 17.8758L24.8948 22.4717C24.791 22.5289 24.7266 22.638 24.7266 22.7565V25.7124C24.7266 25.9597 24.9917 26.1165 25.2085 25.9973L33.5453 21.4118C33.6492 21.3546 33.7137 21.2455 33.7137 21.1269V18.1606C33.7137 17.9131 33.4483 17.7563 33.2316 17.8758Z" fill="#333333" stroke="#161616" stroke-width="0.650348"/>
<path d="M41.6899 27.9771L39.4132 26.8441C39.2419 26.737 39.0624 26.6463 38.8747 26.5763H38.8665C37.671 26.119 36.1369 26.3208 34.4641 27.2932C30.6656 29.5098 27.5933 34.8782 27.6055 39.2825C27.6096 41.4167 28.3399 42.9329 29.5231 43.6828V43.6869L29.5476 43.6992C29.7149 43.8023 29.8944 43.8929 30.078 43.9671L32.4526 45.1619L33.1258 43.9053C33.5747 43.7487 34.0357 43.5344 34.5131 43.2584C38.3116 41.0459 41.3798 35.6734 41.3676 31.2649C41.3635 30.4697 41.2615 29.757 41.0697 29.139L41.6899 27.9771Z" fill="black" stroke="black" stroke-width="0.545682" stroke-miterlimit="10" stroke-linecap="round" stroke-linejoin="round"/>
<path d="M36.8469 28.4927C40.6455 26.2802 43.7341 28.056 43.7463 32.4644C43.7586 36.8729 40.6904 42.2454 36.8918 44.4579C33.0933 46.6745 30.0006 44.8946 29.9883 40.4862C29.9761 36.0736 33.0484 30.7051 36.8469 28.4927Z" fill="#F79E1B" stroke="black" stroke-width="0.545682" stroke-miterlimit="10" stroke-linecap="round" stroke-linejoin="round"/>
<path d="M33.9959 43.6871C32.4862 43.6871 31.5805 42.3934 31.5723 40.2303C31.5601 36.5388 34.2448 31.8543 37.4272 30.0002C38.2555 29.5182 39.0552 29.2627 39.7406 29.2627C41.2502 29.2627 42.156 30.5523 42.1601 32.7153C42.1723 36.4069 39.4917 41.0955 36.3093 42.9496C35.4851 43.4316 34.6854 43.6871 33.9959 43.6871Z" fill="white" stroke="black" stroke-width="0.545682" stroke-miterlimit="10" stroke-linecap="round" stroke-linejoin="round"/>
<path d="M35.777 36.4938C35.6114 36.1744 35.2189 36.049 34.9005 36.2138C34.582 36.3786 34.458 36.7711 34.6236 37.0905L35.777 36.4938ZM36.2098 38.7393L35.6331 39.0376C35.7408 39.2452 35.9511 39.3795 36.1842 39.3894C36.4173 39.3994 36.6375 39.2835 36.7611 39.0858L36.2098 38.7393ZM39.597 34.5501C39.7872 34.2459 39.6946 33.8442 39.3902 33.6528C39.0857 33.4614 38.6847 33.5528 38.4945 33.857L39.597 34.5501ZM34.6236 37.0905L35.6331 39.0376L36.7865 38.4409L35.777 36.4938L34.6236 37.0905ZM36.7611 39.0858L39.597 34.5501L38.4945 33.857L35.6586 38.3927L36.7611 39.0858Z" fill="black"/>
</svg>
