<svg width="45" height="53" viewBox="0 0 45 53" fill="none" xmlns="http://www.w3.org/2000/svg">
<g clip-path="url(#clip0_2989_4024)">
<path d="M24.1134 2.9668L24.0931 8.47346L10.3783 16.6604C9.11214 17.4113 7.0458 17.4113 5.76952 16.65C5.13139 16.2745 4.81738 15.7739 4.81738 15.2733C4.81738 14.7831 5.13139 14.2825 5.75939 13.9071L24.1033 2.9668H24.1134Z" fill="#BDBDBD" stroke="#040200" stroke-width="0.538481" stroke-miterlimit="10" stroke-linecap="round" stroke-linejoin="round"/>
<path d="M25.258 23.9609L25.2378 29.8013C25.2378 30.5939 26.0582 31.0841 26.7268 30.6878L31.8319 27.632L31.8116 37.7275L27.0104 40.5956L20.1833 44.6004L13.4576 48.6678C10.4593 50.4617 5.56696 50.4512 2.55861 48.6678C1.04936 47.7709 0.299805 46.5924 0.299805 45.4035L0.370709 15.2629C0.370709 16.4414 1.12027 17.6303 2.63964 18.5272C5.648 20.3211 10.5302 20.3211 13.5285 18.5272L31.8825 7.58691L31.8521 18.8401L26.2406 22.2088C25.6328 22.5634 25.258 23.2308 25.258 23.9609Z" fill="white" stroke="black" stroke-width="0.538481" stroke-miterlimit="10" stroke-linecap="round" stroke-linejoin="round"/>
<mask id="mask0_2989_4024" style="mask-type:alpha" maskUnits="userSpaceOnUse" x="0" y="7" width="33" height="44">
<path d="M25.258 23.9609L25.2378 29.8012C25.2378 30.5939 26.0582 31.084 26.7268 30.6877L31.8319 27.632L31.8116 37.7275L27.0104 40.5955L20.1833 44.6004L13.4576 48.6678C10.4593 50.4616 5.56696 50.4512 2.55861 48.6678C1.04936 47.7709 0.299805 46.5924 0.299805 45.4034L0.370709 15.2628C0.370709 16.4414 1.12027 17.6303 2.63964 18.5272C5.648 20.321 10.5302 20.321 13.5285 18.5272L31.8825 7.58691L31.8521 18.8401L26.2406 22.2087C25.6328 22.5633 25.258 23.2308 25.258 23.9609Z" fill="url(#paint0_linear_2989_4024)" stroke="black" stroke-width="0.538481" stroke-miterlimit="10" stroke-linecap="round" stroke-linejoin="round"/>
</mask>
<g mask="url(#mask0_2989_4024)">
<g style="mix-blend-mode:multiply" opacity="0.3">
<path d="M33.3395 18.8838L33.3091 27.6757L25.6413 32.2646C24.9829 32.6609 24.1523 32.1707 24.1523 31.3781L24.1726 25.5273C24.1726 24.8077 24.5474 24.1402 25.1551 23.7752L33.3395 18.8838Z" fill="white"/>
</g>
</g>
<path d="M24.6917 41.9824L22.5342 43.2652" stroke="black" stroke-width="0.538481" stroke-miterlimit="10" stroke-linecap="round" stroke-linejoin="round"/>
<path d="M31.882 7.58661L13.5279 18.5373C10.5398 20.3312 5.64746 20.3207 2.6391 18.5373C-0.369253 16.7435 -0.389511 13.8337 2.59859 12.0503L20.9526 1.09961L24.1028 2.96645L5.75888 13.9172C4.49274 14.6681 4.50287 15.9091 5.76901 16.6601C7.04528 17.4214 9.11163 17.4214 10.3778 16.6601L28.7318 5.71977L31.882 7.58661Z" fill="black" stroke="black" stroke-width="0.538481" stroke-miterlimit="10" stroke-linecap="round" stroke-linejoin="round"/>
<path d="M8.44336 19.8623V50.1176" stroke="black" stroke-width="0.538481" stroke-miterlimit="10" stroke-linecap="round" stroke-linejoin="round"/>
<path d="M34.4157 17.3174L34.3853 26.1093L26.7175 30.6982C26.0591 31.0945 25.2285 30.6043 25.2285 29.8117L25.2488 23.9609C25.2488 23.2412 25.6236 22.5738 26.2313 22.2087L34.4157 17.3174Z" fill="black" stroke="black" stroke-width="0.538481" stroke-miterlimit="10" stroke-linecap="round" stroke-linejoin="round"/>
<path d="M31.7207 18.6627L34.414 17.2761L31.7207 15.8896V18.6627Z" fill="black"/>
<path d="M31.8711 15.8057L34.4135 17.318" stroke="black" stroke-width="0.538481" stroke-miterlimit="10" stroke-linecap="round" stroke-linejoin="round"/>
<path d="M29.6445 23.3254C30.2927 22.9395 30.8296 23.2524 30.8296 24.0242C30.8296 24.7959 30.2927 25.7554 29.6445 26.1413C28.9861 26.5376 28.4492 26.2143 28.4492 25.4426C28.4492 24.6604 28.9861 23.7113 29.6445 23.3254Z" fill="white" stroke="black" stroke-width="0.538481" stroke-miterlimit="10" stroke-linecap="round" stroke-linejoin="round"/>
<path d="M41.8562 32.9827L38.5448 31.293C38.3599 31.1748 38.1661 31.0749 37.9636 30.9977H37.9504C36.6602 30.4935 35.0045 30.7161 33.1991 31.7881C29.0995 34.2319 25.7837 40.1508 25.7969 45.0067C25.8013 47.3597 26.5895 49.0313 27.8665 49.858V49.8625L27.8929 49.8762C28.0735 49.9897 28.2672 50.0897 28.4654 50.1714L31.4333 51.7068L31.7548 50.1033C32.2391 49.9307 32.7367 49.6945 33.2519 49.3901C37.3515 46.9508 40.6629 41.0275 40.6497 36.167C40.6453 35.2903 40.5352 34.5045 40.3282 33.8231L41.8562 32.9827Z" fill="black" stroke="black" stroke-width="0.538481" stroke-miterlimit="10" stroke-linecap="round" stroke-linejoin="round"/>
<path d="M36.6512 33.5649C40.7508 31.1256 44.0842 33.0834 44.0974 37.9438C44.1106 42.8042 40.7993 48.7276 36.6997 51.1669C32.6001 53.6108 29.2623 51.6484 29.2491 46.788C29.2359 41.923 32.5516 36.0042 36.6512 33.5649Z" fill="#F79E1B" stroke="black" stroke-width="0.572852" stroke-miterlimit="10" stroke-linecap="round" stroke-linejoin="round"/>
<path d="M33.5727 50.3172C31.9434 50.3172 30.9659 48.8909 30.9571 46.5061C30.9439 42.4361 33.8413 37.2713 37.276 35.2272C38.1699 34.6957 39.033 34.4141 39.7727 34.4141C41.402 34.4141 42.3796 35.8358 42.384 38.2206C42.3972 42.2907 39.5041 47.46 36.0695 49.5041C35.18 50.0356 34.3169 50.3172 33.5727 50.3172Z" fill="white" stroke="black" stroke-width="0.538481" stroke-miterlimit="10" stroke-linecap="round" stroke-linejoin="round"/>
<path d="M35.1315 44.4616C35.1315 45.3311 35.7291 45.6789 36.4697 45.2375C37.2037 44.8027 37.7948 43.746 37.7948 42.8766C37.7948 42.0071 37.1972 41.6526 36.4632 42.0941C35.7291 42.5288 35.1315 42.181 35.1251 41.3115C35.1186 40.4421 35.7162 39.3854 36.4502 38.944C37.1842 38.5092 37.7818 38.857 37.7818 39.7265" stroke="black" stroke-width="1.36546" stroke-miterlimit="10" stroke-linecap="round" stroke-linejoin="round"/>
<path d="M36.4492 38.9434V37.4854" stroke="black" stroke-width="1.36546" stroke-miterlimit="10" stroke-linecap="round" stroke-linejoin="round"/>
<path d="M36.4492 46.7091V45.251" stroke="black" stroke-width="1.36546" stroke-miterlimit="10" stroke-linecap="round" stroke-linejoin="round"/>
</g>
<defs>
<linearGradient id="paint0_linear_2989_4024" x1="-2.9902" y1="7.87471" x2="16.8565" y2="49.7781" gradientUnits="userSpaceOnUse">
<stop stop-color="#79A3FF"/>
<stop offset="1" stop-color="#205ADD"/>
</linearGradient>
<clipPath id="clip0_2989_4024">
<rect width="45" height="53" fill="white"/>
</clipPath>
</defs>
</svg>
