<svg width="48" height="47" viewBox="0 0 48 47" fill="none" xmlns="http://www.w3.org/2000/svg">
<g clip-path="url(#clip0_2989_3998)">
<path d="M33.9856 4.89986L28.5529 2.19623C28.144 1.94061 27.7156 1.72432 27.2678 1.55719H27.2483C24.3957 0.465906 20.7349 0.947644 16.7432 3.26785C7.67901 8.55713 0.347832 21.3674 0.37704 31.8771C0.386776 36.9698 2.12951 40.5877 4.95294 42.377V42.3868L5.01136 42.4163C5.41053 42.6621 5.83892 42.8784 6.27704 43.0554L11.9434 45.9065L13.5498 42.9079C14.6208 42.5343 15.7209 42.0231 16.86 41.3644C25.9242 36.0849 33.2457 23.2648 33.2165 12.7453C33.2067 10.8478 32.9633 9.14701 32.5057 7.6723L33.9856 4.89986Z" fill="black" stroke="black" stroke-width="0.573923" stroke-miterlimit="10" stroke-linecap="round" stroke-linejoin="round"/>
<path d="M22.4317 6.12844C31.4959 0.848984 38.866 5.08631 38.8952 15.6059C38.9244 26.1254 31.603 38.9455 22.5388 44.225C13.4746 49.5143 6.09472 45.2671 6.06552 34.7475C6.03631 24.2181 13.3675 11.4079 22.4317 6.12844Z" fill="#DBDBDB" stroke="black" stroke-width="0.573923" stroke-miterlimit="10" stroke-linecap="round" stroke-linejoin="round"/>
<path d="M15.626 42.3874C12.0237 42.3874 9.86234 39.3004 9.84287 34.1389C9.81367 25.33 16.2199 14.1517 23.814 9.72759C25.7904 8.57732 27.6986 7.96777 29.3343 7.96777C32.9366 7.96777 35.098 11.045 35.1077 16.2065C35.1369 25.0154 28.7404 36.2035 21.1463 40.6276C19.1797 41.7779 17.2714 42.3874 15.626 42.3874Z" fill="white" stroke="black" stroke-width="0.573923" stroke-miterlimit="10" stroke-linecap="round" stroke-linejoin="round"/>
<mask id="mask0_2989_3998" style="mask-type:alpha" maskUnits="userSpaceOnUse" x="9" y="7" width="27" height="36">
<path d="M15.626 42.3874C12.0237 42.3874 9.86234 39.3003 9.84287 34.1388C9.81367 25.3299 16.2199 14.1517 23.814 9.72758C25.7904 8.57731 27.6986 7.96777 29.3343 7.96777C32.9366 7.96777 35.098 11.0449 35.1077 16.2064C35.1369 25.0153 28.7404 36.2034 21.1463 40.6275C19.1797 41.7778 17.2714 42.3874 15.626 42.3874Z" fill="white" stroke="black" stroke-width="0.573923" stroke-miterlimit="10" stroke-linecap="round" stroke-linejoin="round"/>
</mask>
<g mask="url(#mask0_2989_3998)">
<path opacity="0.08" d="M41.5035 26.3512L39.0988 25.1545C38.9178 25.0413 38.7282 24.9456 38.5299 24.8716H38.5213C37.2586 24.3886 35.6382 24.6018 33.8713 25.6288C29.8591 27.9701 26.6141 33.6404 26.627 38.2925C26.6313 40.5467 27.4027 42.1481 28.6525 42.9402V42.9445L28.6783 42.9576C28.855 43.0664 29.0446 43.1621 29.2386 43.2404L31.7467 44.5024L32.4578 43.1752C32.9318 43.0098 33.4188 42.7835 33.923 42.4919C37.9352 40.155 41.176 34.4803 41.1631 29.8239C41.1588 28.984 41.051 28.2312 40.8485 27.5784L41.5035 26.3512Z" fill="black" stroke="black" stroke-width="0.573923" stroke-miterlimit="10" stroke-linecap="round" stroke-linejoin="round"/>
</g>
<path d="M45.4566 25.4724L43.0519 24.2757C42.8709 24.1625 42.6813 24.0668 42.4831 23.9928H42.4744C41.2118 23.5097 39.5914 23.723 37.8245 24.75C33.8123 27.0913 30.5672 32.7616 30.5801 37.4137C30.5844 39.6679 31.3558 41.2693 32.6056 42.0613V42.0657L32.6315 42.0788C32.8081 42.1876 32.9978 42.2832 33.1917 42.3615L35.6999 43.6236L36.4109 42.2962C36.885 42.1309 37.372 41.9047 37.8762 41.6131C41.8884 39.2762 45.1291 33.6015 45.1162 28.9451C45.1119 28.1052 45.0041 27.3524 44.8016 26.6996L45.4566 25.4724Z" fill="black" stroke="black" stroke-width="0.573923" stroke-miterlimit="10" stroke-linecap="round" stroke-linejoin="round"/>
<path d="M40.3401 26.017C44.3523 23.6801 47.6146 25.5557 47.6275 30.2121C47.6404 34.8685 44.3997 40.5432 40.3875 42.8801C36.3753 45.2213 33.1087 43.3414 33.0957 38.685C33.0828 34.0242 36.3279 28.3539 40.3401 26.017Z" fill="#F79E1B" stroke="black" stroke-width="0.573923" stroke-miterlimit="10" stroke-linecap="round" stroke-linejoin="round"/>
<path d="M37.3285 42.0657C35.7339 42.0657 34.7772 40.6992 34.7686 38.4145C34.7557 34.5154 37.5913 29.5674 40.9528 27.6091C41.8276 27.0999 42.6723 26.8301 43.3963 26.8301C44.9908 26.8301 45.9475 28.1922 45.9518 30.4769C45.9648 34.3761 43.1334 39.3284 39.772 41.2867C38.9014 41.7959 38.0568 42.0657 37.3285 42.0657Z" fill="white" stroke="black" stroke-width="0.573923" stroke-miterlimit="10" stroke-linecap="round" stroke-linejoin="round"/>
<path d="M22.7528 24.5394C25.5411 23.2247 27.5788 24.6473 27.3231 27.7339L27.2734 28.3106L17.2034 33.0631L17.2531 32.4865C17.5089 29.3999 19.9753 25.8449 22.7528 24.5394Z" fill="#000002" stroke="black" stroke-width="0.573923" stroke-miterlimit="10" stroke-linecap="round" stroke-linejoin="round"/>
<path d="M23.3545 17.315C24.6069 16.7216 25.5208 17.3625 25.4014 18.7486C25.2829 20.1245 24.1873 21.7102 22.9349 22.3035C21.6934 22.8877 20.7795 22.2467 20.8872 20.8801C21.0066 19.494 22.113 17.8991 23.3545 17.315Z" fill="#000002" stroke="black" stroke-width="0.573923" stroke-miterlimit="10" stroke-linecap="round" stroke-linejoin="round"/>
<path d="M37.9277 36.1127L42.7893 32.7861" stroke="#161616" stroke-width="1.36801" stroke-linecap="round"/>
<path d="M40.5005 31.5068L40.2198 37.3908" stroke="#161616" stroke-width="1.36801" stroke-linecap="round"/>
</g>
<defs>
<clipPath id="clip0_2989_3998">
<rect width="48" height="47" fill="white"/>
</clipPath>
</defs>
</svg>
