<svg width="74" height="74" viewBox="0 0 74 74" fill="none" xmlns="http://www.w3.org/2000/svg">
<mask id="mask0_3098_12108" style="mask-type:alpha" maskUnits="userSpaceOnUse" x="13" y="15" width="51" height="46">
<path d="M56.7176 15.8519C56.7548 15.7807 56.8006 15.672 56.8134 15.543L60.1105 17.3113L60.1276 17.3204L60.1452 17.3283C61.3584 17.8658 62.2224 19.0629 62.3015 20.6593L63.6064 46.961C63.7332 49.5175 61.7886 52.0444 59.285 52.5766L21.3951 60.6302C20.2965 60.8637 19.2926 60.6709 18.5086 60.1846L14.2878 57.5753L14.8086 56.9304C14.8907 56.9826 14.9827 57.0429 15.0822 57.1078C15.1056 57.1232 15.1294 57.1387 15.1536 57.1545C15.3569 57.2873 15.5907 57.4386 15.7759 57.5344C15.8554 57.5755 15.9868 57.6396 16.1231 57.6608C16.182 57.6698 16.3568 57.6908 16.5297 57.5804C16.7509 57.4394 16.7895 57.211 16.783 57.0809L15.4782 30.7792C15.3514 28.2234 17.295 25.6971 19.7979 25.1643C19.7973 25.1643 19.7985 25.1641 19.7979 25.1643L54.6275 18.0061L55.2483 17.8785L55.069 17.4672C55.0832 17.4506 55.1003 17.4317 55.1206 17.4104C55.2682 17.2547 55.4871 17.0696 55.74 16.8565L55.7474 16.8503C55.9827 16.6519 56.2497 16.4267 56.4442 16.2191C56.5412 16.1155 56.6456 15.9899 56.7176 15.8519Z" fill="black"/>
<path d="M19.7979 25.1643C17.295 25.6971 15.3514 28.2234 15.4782 30.7792L16.783 57.0809C16.7895 57.211 16.7509 57.4394 16.5297 57.5804C16.3568 57.6908 16.182 57.6698 16.1231 57.6608C15.9868 57.6396 15.8554 57.5755 15.7759 57.5344C15.5907 57.4386 15.3569 57.2873 15.1536 57.1545C15.1294 57.1387 15.1056 57.1232 15.0822 57.1078C14.9827 57.0429 14.8907 56.9826 14.8086 56.9304L14.2878 57.5753L18.5086 60.1846C19.2926 60.6709 20.2965 60.8637 21.3951 60.6302L59.285 52.5766C61.7886 52.0444 63.7332 49.5175 63.6064 46.961L62.3015 20.6593C62.2224 19.0629 61.3584 17.8658 60.1452 17.3283L60.1276 17.3204L60.1105 17.3113L56.8134 15.543C56.8006 15.672 56.7548 15.7807 56.7176 15.8519C56.6456 15.9899 56.5412 16.1155 56.4442 16.2191C56.2497 16.4267 55.9827 16.6519 55.7474 16.8503L55.74 16.8565C55.4871 17.0696 55.2682 17.2547 55.1206 17.4104C55.1003 17.4317 55.0832 17.4506 55.069 17.4672L55.2483 17.8785L54.6275 18.0061L19.7979 25.1643ZM19.7979 25.1643C19.7985 25.1641 19.7973 25.1643 19.7979 25.1643Z" stroke="black" stroke-width="0.5"/>
</mask>
<g mask="url(#mask0_3098_12108)">
<path d="M56.7176 15.8519C56.7548 15.7807 56.8006 15.672 56.8134 15.543L60.1105 17.3113L60.1276 17.3204L60.1452 17.3283C61.3584 17.8658 62.2224 19.0629 62.3015 20.6593L63.6064 46.961C63.7332 49.5175 61.7886 52.0444 59.285 52.5766L21.3951 60.6302C20.2965 60.8637 19.2926 60.6709 18.5086 60.1846L14.2878 57.5753L14.8086 56.9304C14.8907 56.9826 14.9827 57.0429 15.0822 57.1078C15.1056 57.1232 15.1294 57.1387 15.1536 57.1545C15.3569 57.2873 15.5907 57.4386 15.7759 57.5344C15.8554 57.5755 15.9868 57.6396 16.1231 57.6608C16.182 57.6698 16.3568 57.6908 16.5297 57.5804C16.7509 57.4394 16.7895 57.211 16.783 57.0809L15.4782 30.7792C15.3514 28.2234 17.295 25.6971 19.7979 25.1643C19.7973 25.1643 19.7985 25.1641 19.7979 25.1643L54.6275 18.0061L55.2483 17.8785L55.069 17.4672C55.0832 17.4506 55.1003 17.4317 55.1206 17.4104C55.2682 17.2547 55.4871 17.0696 55.74 16.8565L55.7474 16.8503C55.9827 16.6519 56.2497 16.4267 56.4442 16.2191C56.5412 16.1155 56.6456 15.9899 56.7176 15.8519Z" fill="black"/>
<path d="M19.7979 25.1643C17.295 25.6971 15.3514 28.2234 15.4782 30.7792L16.783 57.0809C16.7895 57.211 16.7509 57.4394 16.5297 57.5804C16.3568 57.6908 16.182 57.6698 16.1231 57.6608C15.9868 57.6396 15.8554 57.5755 15.7759 57.5344C15.5907 57.4386 15.3569 57.2873 15.1536 57.1545C15.1294 57.1387 15.1056 57.1232 15.0822 57.1078C14.9827 57.0429 14.8907 56.9826 14.8086 56.9304L14.2878 57.5753L18.5086 60.1846C19.2926 60.6709 20.2965 60.8637 21.3951 60.6302L59.285 52.5766C61.7886 52.0444 63.7332 49.5175 63.6064 46.961L62.3015 20.6593C62.2224 19.0629 61.3584 17.8658 60.1452 17.3283L60.1276 17.3204L60.1105 17.3113L56.8134 15.543C56.8006 15.672 56.7548 15.7807 56.7176 15.8519C56.6456 15.9899 56.5412 16.1155 56.4442 16.2191C56.2497 16.4267 55.9827 16.6519 55.7474 16.8503L55.74 16.8565C55.4871 17.0696 55.2682 17.2547 55.1206 17.4104C55.1003 17.4317 55.0832 17.4506 55.069 17.4672L55.2483 17.8785L54.6275 18.0061L19.7979 25.1643ZM19.7979 25.1643C19.7985 25.1641 19.7973 25.1643 19.7979 25.1643Z" stroke="black" stroke-width="0.5"/>
<path d="M53.1225 46.8672L61.4132 52.4737L59.7527 53.3255L50.7747 47.1511L53.1225 46.8672Z" fill="#B8A9A9"/>
<path d="M66.0007 44.7848L58.3421 39.5996L55.5242 45.3665L63.8816 51.0326L66.0007 44.7848Z" fill="#B8A9A9"/>
<path d="M17.5462 56.5098L25.7886 61.9181L20.1274 63.912L10.9202 57.9702L17.5462 56.5098Z" fill="#B8A9A9"/>
<path d="M24.3777 58.7003L32.2994 56.918" stroke="#BCFF2F" stroke-width="0.5" stroke-linecap="round"/>
<path d="M59.8279 18.5859C60.2976 18.9573 60.9549 19.6869 61.1385 22.256C61.1385 22.7016 61.4039 26.1948 61.6115 30.0722" stroke="#BCFF2F" stroke-width="0.5" stroke-linecap="round"/>
<path d="M19.7979 25.1643C17.295 25.6971 15.3514 28.2234 15.4782 30.7792L16.783 57.0809C16.7895 57.211 16.7509 57.4394 16.5297 57.5804C16.3568 57.6908 16.182 57.6698 16.1231 57.6608C15.9868 57.6396 15.8554 57.5755 15.7759 57.5344C15.5907 57.4386 15.3569 57.2873 15.1536 57.1545C15.1294 57.1387 15.1056 57.1232 15.0822 57.1078C14.9827 57.0429 14.8907 56.9826 14.8086 56.9304L14.2878 57.5753L18.5086 60.1846C19.2926 60.6709 20.2965 60.8637 21.3951 60.6302L59.285 52.5766C61.7886 52.0444 63.7332 49.5175 63.6064 46.961L62.3015 20.6593C62.2224 19.0629 61.3584 17.8658 60.1452 17.3283L60.1276 17.3204L60.1105 17.3113L56.8134 15.543C56.8006 15.672 56.7548 15.7807 56.7176 15.8519C56.6456 15.9899 56.5412 16.1155 56.4442 16.2191C56.2497 16.4267 55.9827 16.6519 55.7474 16.8503L55.74 16.8565C55.4871 17.0696 55.2682 17.2547 55.1206 17.4104C55.1003 17.4317 55.0832 17.4506 55.069 17.4672L55.2483 17.8785L54.6275 18.0061L19.7979 25.1643ZM19.7979 25.1643C19.7985 25.1641 19.7973 25.1643 19.7979 25.1643Z" stroke="black" stroke-width="0.5"/>
</g>
<mask id="mask1_3098_12108" style="mask-type:alpha" maskUnits="userSpaceOnUse" x="10" y="14" width="50" height="45">
<path d="M52.386 14.4097L15.2594 22.3012C12.5759 22.8716 10.5106 25.5553 10.6465 28.2955L11.9126 53.8177C12.0486 56.5578 14.3342 58.3167 17.0178 57.7463L54.1443 49.8548C56.8279 49.2844 58.8932 46.6007 58.7573 43.8605L57.4912 18.3383C57.3552 15.5982 55.0696 13.8392 52.386 14.4097Z" fill="white" stroke="black" stroke-width="0.5"/>
</mask>
<g mask="url(#mask1_3098_12108)">
<path d="M52.386 14.4097L15.2594 22.3012C12.5759 22.8716 10.5106 25.5553 10.6465 28.2955L11.9126 53.8177C12.0486 56.5578 14.3342 58.3167 17.0178 57.7463L54.1443 49.8548C56.8279 49.2844 58.8932 46.6007 58.7573 43.8605L57.4912 18.3383C57.3552 15.5982 55.0696 13.8392 52.386 14.4097Z" fill="#EBE9E9" stroke="black" stroke-width="0.5"/>
<path d="M51.1122 11.2566L10.5005 19.8889C8.5017 20.3138 6.96342 22.3127 7.06467 24.3537L8.50731 53.4344C8.60856 55.4754 10.311 56.7855 12.3098 56.3606L52.9214 47.7283C54.9202 47.3035 56.4585 45.3045 56.3573 43.2636L54.9146 14.1828C54.8134 12.1419 53.111 10.8318 51.1122 11.2566Z" fill="white"/>
<path d="M13.4133 57.9831L27.9114 35.0332" stroke="#DCDCDC" stroke-width="1.5"/>
<path d="M57.5718 47.5702L38.1001 32.3574" stroke="#DCDCDC" stroke-width="1.5"/>
<mask id="mask2_3098_12108" style="mask-type:alpha" maskUnits="userSpaceOnUse" x="8" y="10" width="50" height="32">
<path d="M30.404 40.7633L8.83252 22.451L11.1447 18.5705L51.2387 10.9336L56.8748 13.1934L36.3333 40.1226C34.9051 41.9948 32.1991 42.2871 30.404 40.7633Z" fill="#66DD8C" stroke="black" stroke-width="0.5"/>
</mask>
<g mask="url(#mask2_3098_12108)">
<path d="M30.404 40.7633L8.83252 22.451L11.1447 18.5705L51.2387 10.9336L56.8748 13.1934L36.3333 40.1226C34.9051 41.9948 32.1991 42.2871 30.404 40.7633Z" fill="#BCFF2F" stroke="black" stroke-width="0.5"/>
<path d="M18.2351 19.8656L46.7401 13.8066C46.8811 17.2152 44.2905 20.5534 40.9535 21.2626L24.5325 24.7529C21.1957 25.4623 18.3762 23.2742 18.2351 19.8656Z" fill="white"/>
<path d="M30.404 40.7633L8.83252 22.451L11.1447 18.5705L51.2387 10.9336L56.8748 13.1934L36.3333 40.1226C34.9051 41.9948 32.1991 42.2871 30.404 40.7633Z" stroke="black" stroke-width="0.5"/>
</g>
<path d="M52.386 14.4097L15.2594 22.3012C12.5759 22.8716 10.5106 25.5553 10.6465 28.2955L11.9126 53.8177C12.0486 56.5578 14.3342 58.3167 17.0178 57.7463L54.1443 49.8548C56.8279 49.2844 58.8932 46.6007 58.7573 43.8605L57.4912 18.3383C57.3552 15.5982 55.0696 13.8392 52.386 14.4097Z" stroke="black" stroke-width="0.5"/>
</g>
</svg>
