<svg width="74" height="74" viewBox="0 0 74 74" fill="none" xmlns="http://www.w3.org/2000/svg">
<mask id="mask0_3098_12204" style="mask-type:alpha" maskUnits="userSpaceOnUse" x="18" y="4" width="38" height="68">
<path d="M46.4674 6.47946L46.6092 6.44402C46.6267 6.51387 46.6236 6.569 46.6232 6.57846C46.6228 6.58349 46.6226 6.58863 46.6221 6.59213C46.6219 6.59502 46.6217 6.59735 46.6215 6.59901L46.6207 6.6058C46.6207 6.6058 46.6211 6.60304 46.6224 6.59663L46.6287 6.56834C46.6406 6.51817 46.661 6.44316 46.69 6.34439C46.7473 6.14868 46.831 5.88475 46.9268 5.59162C47.0407 5.24306 47.17 4.85898 47.2894 4.50977L51.2348 7.25317L51.2576 7.26809C52.3253 7.92965 53.0606 9.11834 53.1362 10.6424L55.594 60.1903C55.7315 62.962 53.6248 65.6996 50.9104 66.2766L26.3846 71.4896C25.1124 71.7602 23.9545 71.5042 23.0776 70.8927L22.6079 70.5651L22.605 70.5706L18.7498 67.8889L21.4299 54.6888L21.4488 54.5955L21.433 54.5015C21.4019 54.3165 21.3812 54.1253 21.3713 53.9282L21.3709 53.9184L18.9132 18.0791C18.7783 15.3091 20.8841 12.5742 23.597 11.9976L46.4984 7.12976L46.4674 6.47946ZM46.4674 6.47946L46.6092 6.44402C46.5841 6.34398 46.5346 6.27351 46.4974 6.23154C46.4824 6.21452 46.4674 6.19999 46.4536 6.18774L46.4674 6.47946Z" fill="black"/>
<path d="M46.4674 6.47946L46.6092 6.44402M46.4674 6.47946L46.4984 7.12976L23.597 11.9976C20.8841 12.5742 18.7783 15.3091 18.9132 18.0791L21.3709 53.9184L21.3713 53.9282C21.3812 54.1253 21.4019 54.3165 21.433 54.5015L21.4488 54.5955L21.4299 54.6888L18.7498 67.8889L22.605 70.5706L22.6079 70.5651L23.0776 70.8927C23.9545 71.5042 25.1124 71.7602 26.3846 71.4897L50.9104 66.2766C53.6248 65.6996 55.7315 62.962 55.594 60.1903L53.1362 10.6424C53.0606 9.11834 52.3253 7.92965 51.2576 7.26809L51.2348 7.25317L47.2894 4.50977C47.1699 4.85898 47.0407 5.24306 46.9268 5.59163C46.831 5.88475 46.7473 6.14868 46.69 6.34439C46.661 6.44316 46.6406 6.51817 46.6287 6.56834L46.6224 6.59663C46.6211 6.60304 46.6207 6.6058 46.6207 6.6058L46.6215 6.59901C46.6217 6.59735 46.6219 6.59502 46.6221 6.59213C46.6226 6.58863 46.6228 6.58349 46.6232 6.57846C46.6236 6.569 46.6267 6.51387 46.6092 6.44402M46.4674 6.47946L46.4536 6.18774C46.4674 6.19999 46.4824 6.21452 46.4974 6.23154C46.5346 6.27351 46.5841 6.34398 46.6092 6.44402" stroke="black" stroke-width="0.5"/>
</mask>
<g mask="url(#mask0_3098_12204)">
<path d="M46.4674 6.47946L46.6092 6.44402C46.6267 6.51387 46.6236 6.569 46.6232 6.57846C46.6228 6.58349 46.6226 6.58863 46.6221 6.59213C46.6219 6.59502 46.6217 6.59735 46.6215 6.59901L46.6207 6.6058C46.6207 6.6058 46.6211 6.60304 46.6224 6.59663L46.6287 6.56834C46.6406 6.51817 46.661 6.44316 46.69 6.34439C46.7473 6.14868 46.831 5.88475 46.9268 5.59162C47.0407 5.24306 47.17 4.85898 47.2894 4.50977L51.2348 7.25317L51.2576 7.26809C52.3253 7.92965 53.0606 9.11834 53.1362 10.6424L55.594 60.1903C55.7315 62.962 53.6248 65.6996 50.9104 66.2766L26.3846 71.4896C25.1124 71.7602 23.9545 71.5042 23.0776 70.8927L22.6079 70.5651L22.605 70.5706L18.7498 67.8889L21.4299 54.6888L21.4488 54.5955L21.433 54.5015C21.4019 54.3165 21.3812 54.1253 21.3713 53.9282L21.3709 53.9184L18.9132 18.0791C18.7783 15.3091 20.8841 12.5742 23.597 11.9976L46.4984 7.12976L46.4674 6.47946ZM46.4674 6.47946L46.6092 6.44402C46.5841 6.34398 46.5346 6.27351 46.4974 6.23154C46.4824 6.21452 46.4674 6.19999 46.4536 6.18774L46.4674 6.47946Z" fill="black"/>
<path d="M46.4674 6.47946L46.6092 6.44402M46.4674 6.47946L46.4984 7.12976L23.597 11.9976C20.8841 12.5742 18.7783 15.3091 18.9132 18.0791L21.3709 53.9184L21.3713 53.9282C21.3812 54.1253 21.4019 54.3165 21.433 54.5015L21.4488 54.5955L21.4299 54.6888L18.7498 67.8889L22.605 70.5706L22.6079 70.5651L23.0776 70.8927C23.9545 71.5042 25.1124 71.7602 26.3846 71.4897L50.9104 66.2766C53.6248 65.6996 55.7315 62.962 55.594 60.1903L53.1362 10.6424C53.0606 9.11834 52.3253 7.92965 51.2576 7.26809L51.2348 7.25317L47.2894 4.50977C47.1699 4.85898 47.0407 5.24306 46.9268 5.59163C46.831 5.88475 46.7473 6.14868 46.69 6.34439C46.661 6.44316 46.6406 6.51817 46.6287 6.56834L46.6224 6.59663C46.6211 6.60304 46.6207 6.6058 46.6207 6.6058L46.6215 6.59901C46.6217 6.59735 46.6219 6.59502 46.6221 6.59213C46.6226 6.58863 46.6228 6.58349 46.6232 6.57846C46.6236 6.569 46.6267 6.51387 46.6092 6.44402M46.4674 6.47946L46.4536 6.18774C46.4674 6.19999 46.4824 6.21452 46.4974 6.23154C46.5346 6.27351 46.5841 6.34398 46.6092 6.44402" stroke="black" stroke-width="0.5"/>
<path d="M45.1737 59.709L53.4642 65.3153L51.8039 66.1673L42.8257 59.9929L45.1737 59.709Z" fill="#B8A9A9"/>
<path d="M58.0515 57.6248L50.3929 52.4395L47.575 58.2065L55.9324 63.8725L58.0515 57.6248Z" fill="#B8A9A9"/>
<path d="M21.8782 67.1523L30.1206 72.5607L24.4594 74.5546L15.2522 68.6128L21.8782 67.1523Z" fill="#B8A9A9"/>
<path d="M28.0713 70.1437L35.993 68.3613" stroke="#BCFF2F" stroke-width="0.5" stroke-linecap="round"/>
<path d="M51.1199 8.09766C51.5896 8.46897 52.2471 9.19859 52.4307 11.7676C52.4307 12.2133 52.8784 20.7351 53.086 24.6127" stroke="#BCFF2F" stroke-width="0.5" stroke-linecap="round"/>
<path d="M46.4674 6.47946L46.6092 6.44402M46.4674 6.47946L46.4984 7.12976L23.597 11.9976C20.8841 12.5742 18.7783 15.3091 18.9132 18.0791L21.3709 53.9184L21.3713 53.9282C21.3812 54.1253 21.4019 54.3165 21.433 54.5015L21.4488 54.5955L21.4299 54.6888L18.7498 67.8889L22.6052 70.5708L22.6083 70.5655L23.0776 70.8927C23.9545 71.5042 25.1124 71.7602 26.3846 71.4897L50.9104 66.2766C53.6248 65.6996 55.7315 62.962 55.5942 60.1903L53.1362 10.6424C53.0606 9.11834 52.3253 7.92965 51.2576 7.26809L51.2348 7.25317L47.2894 4.50977C47.1699 4.85898 47.0407 5.24306 46.9268 5.59163C46.831 5.88475 46.7473 6.14868 46.69 6.34439C46.661 6.44316 46.6406 6.51817 46.6287 6.56834L46.6224 6.59663C46.6211 6.60304 46.6207 6.6058 46.6207 6.6058L46.6215 6.59901C46.6217 6.59735 46.6219 6.59502 46.6221 6.59213C46.6226 6.58863 46.6228 6.58349 46.6232 6.57846C46.6236 6.569 46.6267 6.51387 46.6092 6.44402M46.4674 6.47946L46.4536 6.18774C46.4674 6.20001 46.4824 6.21452 46.4974 6.23154C46.5346 6.27351 46.5841 6.34398 46.6092 6.44402" stroke="black" stroke-width="0.5"/>
</g>
<path d="M43.3705 3.53919L18.8446 8.75233C16.1611 9.32275 14.0958 12.0065 14.2317 14.7467L16.6897 64.2946C16.8256 67.0348 19.1113 68.7937 21.7949 68.2233L46.3208 63.0102C49.0043 62.4398 51.0696 59.756 50.9337 57.0158L48.4757 7.46786C48.3398 4.7277 46.0541 2.96878 43.3705 3.53919Z" fill="white" stroke="black" stroke-width="0.5"/>
<mask id="mask1_3098_12204" style="mask-type:alpha" maskUnits="userSpaceOnUse" x="16" y="6" width="33" height="60">
<path d="M42.5195 6.43067L19.9651 11.2248C18.0219 11.6378 16.5263 13.5812 16.6248 15.5655L18.9523 62.4834C19.0507 64.4676 20.7058 65.7413 22.6491 65.3283L45.2034 60.5342C47.1467 60.1212 48.6423 58.1777 48.5438 56.1935L46.2163 9.27557C46.1179 7.29132 44.4628 6.01762 42.5195 6.43067Z" fill="white" stroke="#B8A9A9" stroke-width="0.5"/>
</mask>
<g mask="url(#mask1_3098_12204)">
<path d="M42.4686 5.40449L19.9143 10.1986C17.4158 10.7296 15.493 13.2283 15.6195 15.7795L17.947 62.6974C18.0736 65.2486 20.2016 66.8862 22.7001 66.3551L45.2545 61.5611C47.753 61.03 49.6758 58.5313 49.5492 55.9802L47.2217 9.06222C47.0952 6.51104 44.9671 4.87341 42.4686 5.40449Z" fill="white" stroke="#B8A9A9" stroke-width="0.5"/>
<path d="M21.8042 8.98633L22.36 22.1728L27.6736 27.4222" stroke="#EBE9E9" stroke-width="1.33333" stroke-linecap="round"/>
<path d="M36.5357 26.6777L29.2395 19.6019L30.4819 16.6537L40.7196 14.5499L40.3229 4.66211" stroke="#EBE9E9" stroke-width="1.33333" stroke-linecap="round"/>
<path d="M13.6501 52.7148C14.073 52.6546 18.3576 51.7834 20.447 51.3555L29.1317 56.793L29.7531 69.2283" stroke="#EBE9E9" stroke-width="1.33333" stroke-linecap="round"/>
<path d="M42.9902 32.4238L43.7281 48.4181L36.1487 54.4569L37.0897 72.811" stroke="#EBE9E9" stroke-width="1.33333" stroke-linecap="round"/>
<path d="M42.5195 6.43067L19.9651 11.2248C18.0219 11.6378 16.5263 13.5812 16.6248 15.5655L18.9523 62.4834C19.0507 64.4676 20.7058 65.7413 22.6491 65.3283L45.2034 60.5342C47.1467 60.1212 48.6423 58.1777 48.5438 56.1935L46.2163 9.27557C46.1179 7.29132 44.4628 6.01762 42.5195 6.43067Z" stroke="#B8A9A9" stroke-width="0.5"/>
</g>
<path d="M42.6743 24.1829C43.505 24.1665 44.1502 24.7009 44.2695 25.5042C44.2695 25.5042 44.5124 28.4757 44.4479 33.5363C43.713 42.2457 37.1165 48.3303 33.1144 49.2358C29.111 50.1417 20.8396 45.5035 20.5638 38.839C20.4114 35.1575 20.2872 31.8086 20.2896 30.9634C20.292 30.1181 20.8937 29.2792 21.7301 28.9553C23.3741 28.4315 24.9758 27.6726 26.4817 26.7036C28.1148 25.828 29.5977 24.6246 30.8208 23.1823C31.5042 22.5251 32.4533 22.3103 33.1777 22.6491C34.5633 23.3874 36.083 23.904 37.6925 24.1835C39.3291 24.3032 40.9939 24.303 42.6743 24.1829Z" fill="#BCFF2F"/>
<path d="M31.6373 40.9073C31.1563 41.5187 30.3341 41.6934 29.8032 41.2971L25.4686 38.0485C24.9377 37.6524 24.8966 36.8258 25.3776 36.2145C25.8586 35.6034 26.6808 35.4287 27.2117 35.8248L30.5839 38.3512L36.4681 30.8423C36.9493 30.231 37.7713 30.0563 38.3023 30.4524C38.8334 30.8485 38.8743 31.6752 38.3933 32.2863L31.6373 40.9073Z" fill="black"/>
</svg>
