<svg width="276" height="162" viewBox="0 0 276 162" fill="none" xmlns="http://www.w3.org/2000/svg">
<rect x="0.5" y="0.5" width="275" height="161" rx="4.5" fill="#F6F8FA" stroke="#C4C9D5" stroke-dasharray="2 2"/>
<g clip-path="url(#clip0_7452_2870)">
<path d="M242.082 111.874V133H219.323V131.375H240.456V111.874H242.082ZM35.6249 111.874V131.375H56.7581V133H34V111.874H35.6249ZM242.082 16V37.1255L240.456 37.1243V17.6251L219.323 17.624V16H242.082ZM34 16H56.7593L56.7581 17.624H35.6261L35.6249 37.1255H34V16Z" fill="#EFF2FC"/>
<path d="M57.3799 41.9434H73.629V58.2216H57.3799V41.9434ZM57.3799 77.7559H132.126V90.778H57.3799V77.7559ZM57.3799 98.9177H106.127V111.94H57.3799V98.9177ZM81.7536 41.9434H98.0027V58.2216H81.7536V41.9434ZM106.127 41.9434H122.376V58.2216H106.127V41.9434Z" fill="#EFF2FC"/>
<ellipse cx="193.2" cy="74.4999" rx="34.4" ry="34.4589" fill="#EFF2FC"/>
</g>
<defs>
<clipPath id="clip0_7452_2870">
<rect width="208" height="117" fill="white" transform="translate(34 16)"/>
</clipPath>
</defs>
</svg>
