<svg width="272" height="160" viewBox="0 0 272 160" fill="none" xmlns="http://www.w3.org/2000/svg">
<rect x="0.5" y="0.5" width="271" height="159" rx="4.5" fill="#F6F8FA" stroke="#C4C9D5" stroke-dasharray="2 2"/>
<g clip-path="url(#clip0_7452_2869)">
<path d="M238.081 110.236V131H215.65V129.403H236.478V110.236H238.081ZM34.6015 110.236V129.403H55.4299V131H33V110.236H34.6015ZM238.081 16V36.7644L236.478 36.7632V17.5974L215.65 17.5962V16H238.081ZM33 16H55.431L55.4299 17.5962H34.6026L34.6015 36.7644H33V16Z" fill="#EFF2FC"/>
<path d="M204.98 100L214.865 97.5L216.19 110.299H204.98V100ZM163.342 100L153.456 97.5L152.131 110.299H163.342V100Z" fill="#F9EFE6"/>
<path d="M158.981 86.468L173.364 80.0982C173.658 79.9678 173.977 79.9005 174.299 79.9004H193.06C193.369 79.901 193.674 79.9636 193.959 80.0844L209.17 86.5267C211.252 87.4087 213.028 88.8827 214.276 90.7651C215.525 92.6475 216.19 94.855 216.19 97.1124V98.1635L204.98 100.723V110.301H162.647V100.723L152.131 98.5568V96.9802C152.131 94.7543 152.778 92.5763 153.994 90.7103C155.21 88.8443 156.942 87.3706 158.981 86.468Z" fill="#EFF2FC"/>
<path d="M171.349 44.7012H196.973L194.227 66.642C194.084 67.7901 193.694 68.8939 193.084 69.878C192.474 70.8621 191.66 71.7035 190.695 72.3449L188.941 73.5098C187.52 74.4545 185.85 74.9578 184.142 74.9562C182.435 74.9546 180.766 74.4481 179.346 73.5006L177.616 72.3449C176.654 71.7032 175.842 70.8627 175.235 69.8803C174.628 68.8979 174.239 67.7967 174.096 66.6512L171.349 44.7012Z" fill="#F9EFE6"/>
<path d="M177.212 36.6992H190.415C191.332 36.6992 192.211 37.0627 192.859 37.7097C193.507 38.3567 193.871 39.2342 193.871 40.1492V41.006L195.71 41.489C196.508 41.6992 197.204 42.1873 197.673 42.8652C198.141 43.5431 198.352 44.3659 198.265 45.1851L197.002 57.2244C196.994 57.2998 196.958 57.3695 196.902 57.4202C196.845 57.471 196.772 57.4991 196.696 57.4993C196.615 57.4993 196.536 57.4744 196.47 57.4279C196.403 57.3814 196.353 57.3155 196.325 57.2394L193.871 50.4532H185.677C184.761 50.4532 183.881 50.0897 183.233 49.4427C182.585 48.7957 182.221 47.9182 182.221 47.0032V46.0545H178.707C177.982 46.0546 177.275 46.2823 176.687 46.7054C176.099 47.1285 175.659 47.7255 175.429 48.412L174.326 51.7079L174.061 55.0003C174.007 55.6808 173.697 56.3158 173.195 56.7789C172.692 57.242 172.033 57.4991 171.349 57.4993L170.319 44.1282C170.246 43.1802 170.37 42.2273 170.684 41.3293C170.997 40.4314 171.493 39.6078 172.14 38.9102C172.788 38.2127 173.572 37.6562 174.446 37.2757C175.319 36.8952 176.261 36.699 177.214 36.6992H177.212Z" fill="#87A7DA"/>
<path d="M169.39 60.1344C169.72 61.3641 170.444 62.4345 171.403 63.11C172.361 63.7856 173.476 64.011 174.502 63.7367C175.527 63.4624 176.38 62.7108 176.872 61.6473C177.363 60.5838 177.454 59.2955 177.124 58.0658C176.794 56.8361 176.07 55.7658 175.111 55.0902C174.153 54.4147 173.038 54.1893 172.012 54.4636C170.987 54.7379 170.134 55.4895 169.642 56.553C169.15 57.6165 169.06 58.9047 169.39 60.1344Z" fill="#F9EFE6"/>
<path d="M199.545 60.1347C199.381 60.7436 199.119 61.3198 198.774 61.8304C198.429 62.341 198.007 62.776 197.532 63.1105C197.057 63.4451 196.539 63.6726 196.007 63.7801C195.476 63.8876 194.941 63.8731 194.433 63.7373C193.925 63.6014 193.454 63.347 193.047 62.9885C192.641 62.6299 192.306 62.1744 192.063 61.6477C191.819 61.1211 191.671 60.5338 191.628 59.9192C191.585 59.3047 191.647 58.675 191.81 58.0661C191.974 57.4572 192.235 56.881 192.581 56.3704C192.926 55.8598 193.348 55.4248 193.823 55.0903C194.298 54.7558 194.816 54.5282 195.347 54.4207C195.879 54.3132 196.414 54.3277 196.922 54.4636C197.43 54.5994 197.901 54.8538 198.307 55.2124C198.714 55.5709 199.049 56.0265 199.292 56.5531C199.536 57.0797 199.683 57.667 199.727 58.2816C199.77 58.8961 199.708 59.5258 199.545 60.1347Z" fill="#F9EFE6"/>
<path d="M56.043 41.5H72.0577V57.4999H56.043V41.5ZM56.043 76.7003H129.711V89.4998H56.043V76.7003ZM56.043 97.5004H104.087V110.3H56.043V97.5004ZM80.0651 41.5H96.0799V57.4999H80.0651V41.5ZM104.087 41.5H120.102V57.4999H104.087V41.5Z" fill="#EFF2FC"/>
</g>
<defs>
<clipPath id="clip0_7452_2869">
<rect width="205" height="115" fill="white" transform="translate(33 16)"/>
</clipPath>
</defs>
</svg>
